<mxfile host="app.diagrams.net" modified="2023-10-22T21:46:06.267Z" agent="Mozilla/5.0 (X11; Linux x86_64; rv:109.0) Gecko/20100101 Firefox/118.0" etag="F7ONadgGw2VegQyTjZjy" version="22.0.6" type="device">
  <diagram name="Page-1" id="iEYUiFxrGPYVCJWrMfnb">
    <mxGraphModel dx="1271" dy="1184" grid="1" gridSize="10" guides="1" tooltips="1" connect="1" arrows="1" fold="1" page="1" pageScale="1" pageWidth="850" pageHeight="1100" math="0" shadow="0">
      <root>
        <mxCell id="0" />
        <mxCell id="1" parent="0" />
        <mxCell id="BYIEwgxothReHa3QG6tp-17" value="&lt;font style=&quot;font-size: 19px;&quot;&gt;AutoNation System Architecture&lt;br&gt;&lt;/font&gt;" style="text;html=1;strokeColor=none;fillColor=none;align=center;verticalAlign=middle;whiteSpace=wrap;rounded=0;" vertex="1" parent="1">
          <mxGeometry x="270" y="40" width="310" height="30" as="geometry" />
        </mxCell>
        <mxCell id="BYIEwgxothReHa3QG6tp-19" value="&lt;div style=&quot;font-size: 15px;&quot;&gt;&lt;font style=&quot;font-size: 15px;&quot;&gt;User Interface&lt;/font&gt;&lt;/div&gt;&lt;div style=&quot;font-size: 15px;&quot;&gt;&lt;font style=&quot;font-size: 15px;&quot;&gt;(Client)&lt;font style=&quot;font-size: 15px;&quot;&gt;&lt;br&gt;&lt;/font&gt;&lt;/font&gt;&lt;/div&gt;" style="rounded=0;whiteSpace=wrap;html=1;" vertex="1" parent="1">
          <mxGeometry x="25" y="160" width="120" height="60" as="geometry" />
        </mxCell>
        <mxCell id="BYIEwgxothReHa3QG6tp-25" style="edgeStyle=orthogonalEdgeStyle;rounded=0;orthogonalLoop=1;jettySize=auto;html=1;startArrow=classic;startFill=1;" edge="1" parent="1" source="BYIEwgxothReHa3QG6tp-21" target="BYIEwgxothReHa3QG6tp-19">
          <mxGeometry relative="1" as="geometry" />
        </mxCell>
        <mxCell id="BYIEwgxothReHa3QG6tp-26" style="edgeStyle=orthogonalEdgeStyle;rounded=0;orthogonalLoop=1;jettySize=auto;html=1;entryX=0;entryY=0.5;entryDx=0;entryDy=0;startArrow=classic;startFill=1;" edge="1" parent="1" source="BYIEwgxothReHa3QG6tp-21" target="BYIEwgxothReHa3QG6tp-22">
          <mxGeometry relative="1" as="geometry" />
        </mxCell>
        <mxCell id="BYIEwgxothReHa3QG6tp-21" value="&lt;font style=&quot;font-size: 15px;&quot;&gt;API&lt;/font&gt;" style="rounded=0;whiteSpace=wrap;html=1;" vertex="1" parent="1">
          <mxGeometry x="250" y="160" width="120" height="60" as="geometry" />
        </mxCell>
        <mxCell id="BYIEwgxothReHa3QG6tp-27" style="edgeStyle=orthogonalEdgeStyle;rounded=0;orthogonalLoop=1;jettySize=auto;html=1;entryX=0.5;entryY=0;entryDx=0;entryDy=0;startArrow=classic;startFill=1;" edge="1" parent="1" source="BYIEwgxothReHa3QG6tp-22" target="BYIEwgxothReHa3QG6tp-23">
          <mxGeometry relative="1" as="geometry" />
        </mxCell>
        <mxCell id="BYIEwgxothReHa3QG6tp-22" value="&lt;div&gt;&lt;font style=&quot;font-size: 15px;&quot;&gt;Backend&lt;/font&gt;&lt;/div&gt;&lt;div&gt;&lt;font style=&quot;font-size: 15px;&quot;&gt;(server)&lt;br&gt;&lt;/font&gt;&lt;/div&gt;" style="rounded=0;whiteSpace=wrap;html=1;" vertex="1" parent="1">
          <mxGeometry x="475" y="160" width="120" height="60" as="geometry" />
        </mxCell>
        <mxCell id="BYIEwgxothReHa3QG6tp-23" value="&lt;font style=&quot;font-size: 15px;&quot;&gt;Database&lt;/font&gt;" style="rounded=0;whiteSpace=wrap;html=1;" vertex="1" parent="1">
          <mxGeometry x="475" y="270" width="120" height="60" as="geometry" />
        </mxCell>
        <mxCell id="BYIEwgxothReHa3QG6tp-30" style="edgeStyle=orthogonalEdgeStyle;rounded=0;orthogonalLoop=1;jettySize=auto;html=1;entryX=1;entryY=0.5;entryDx=0;entryDy=0;" edge="1" parent="1" source="BYIEwgxothReHa3QG6tp-29" target="BYIEwgxothReHa3QG6tp-22">
          <mxGeometry relative="1" as="geometry" />
        </mxCell>
        <mxCell id="BYIEwgxothReHa3QG6tp-31" value="" style="edgeStyle=orthogonalEdgeStyle;rounded=0;orthogonalLoop=1;jettySize=auto;html=1;startArrow=classic;startFill=1;" edge="1" parent="1" source="BYIEwgxothReHa3QG6tp-29" target="BYIEwgxothReHa3QG6tp-22">
          <mxGeometry relative="1" as="geometry" />
        </mxCell>
        <mxCell id="BYIEwgxothReHa3QG6tp-29" value="&lt;font style=&quot;font-size: 15px;&quot;&gt;Network Device&lt;br&gt;&lt;/font&gt;" style="rounded=0;whiteSpace=wrap;html=1;" vertex="1" parent="1">
          <mxGeometry x="705" y="160" width="120" height="60" as="geometry" />
        </mxCell>
      </root>
    </mxGraphModel>
  </diagram>
</mxfile>
